<svg xmlns="http://www.w3.org/2000/svg" width="800" height="450" viewBox="0 0 800 450">
  <defs><linearGradient id="bg" x1="0" y1="0" x2="1" y2="1"><stop offset="0%" stop-color="#0a0a0a"/><stop offset="100%" stop-color="#100a0a"/></linearGradient>
  <linearGradient id="ac" x1="0" y1="0" x2="1" y2="0"><stop offset="0%" stop-color="#8F1820"/><stop offset="100%" stop-color="#F6C35B"/></linearGradient>
  <filter id="g"><feGaussianBlur stdDeviation="50" result="b"/><feMerge><feMergeNode in="b"/><feMergeNode in="SourceGraphic"/></feMerge></filter></defs>
  <rect width="800" height="450" fill="url(#bg)"/>
  <ellipse cx="400" cy="225" rx="350" ry="180" fill="#8F1820" opacity="0.06" filter="url(#g)"/>
  <rect x="120" y="90" width="560" height="270" rx="16" fill="#111" stroke="url(#ac)" stroke-width="1.5"/>
  <rect x="150" y="120" width="200" height="4" rx="2" fill="#333"/><rect x="150" y="140" width="160" height="4" rx="2" fill="#222"/>
  <rect x="150" y="170" width="100" height="100" rx="12" fill="#1a1a1a" stroke="#222" stroke-width="1"/>
  <rect x="270" y="170" width="100" height="100" rx="12" fill="#1a1a1a" stroke="#222" stroke-width="1"/>
  <rect x="390" y="170" width="100" height="100" rx="12" fill="#1a1a1a" stroke="#222" stroke-width="1"/>
  <rect x="510" y="170" width="100" height="100" rx="12" fill="#1a1a1a" stroke="#222" stroke-width="1"/>
  <rect x="150" y="300" width="480" height="12" rx="6" fill="#8F1820" opacity="0.25"/>
  <circle cx="600" cy="130" r="8" fill="#8F1820" opacity="0.6"/>
  <text x="400" y="410" text-anchor="middle" font-family="system-ui,-apple-system,sans-serif" font-size="10" fill="#555" letter-spacing="3">PROJECT VELVET REVANCED</text>
</svg>
