<svg xmlns="http://www.w3.org/2000/svg" width="800" height="450" viewBox="0 0 800 450">
  <defs>
    <linearGradient id="bg1" x1="0" y1="0" x2="1" y2="1"><stop offset="0%" stop-color="#0a0a0a"/><stop offset="100%" stop-color="#1a1a1a"/></linearGradient>
    <linearGradient id="ac1" x1="0" y1="0" x2="1" y2="0"><stop offset="0%" stop-color="#F6C35B"/><stop offset="100%" stop-color="#8F1820"/></linearGradient>
    <filter id="glow"><feGaussianBlur stdDeviation="40" result="blur"/><feMerge><feMergeNode in="blur"/><feMergeNode in="SourceGraphic"/></feMerge></filter>
  </defs>
  <rect width="800" height="450" fill="url(#bg1)"/>
  <ellipse cx="400" cy="225" rx="300" ry="150" fill="#F6C35B" opacity="0.04" filter="url(#glow)"/>
  <rect x="100" y="80" width="600" height="290" rx="16" fill="#111" stroke="url(#ac1)" stroke-width="1.5"/>
  <rect x="130" y="110" width="200" height="12" rx="6" fill="#333"/>
  <rect x="130" y="140" width="350" height="8" rx="4" fill="#222"/>
  <rect x="130" y="160" width="300" height="8" rx="4" fill="#222"/>
  <rect x="130" y="200" width="120" height="120" rx="12" fill="#1a1a1a" stroke="#222" stroke-width="1"/>
  <rect x="270" y="200" width="120" height="120" rx="12" fill="#1a1a1a" stroke="#222" stroke-width="1"/>
  <rect x="410" y="200" width="120" height="120" rx="12" fill="#1a1a1a" stroke="#222" stroke-width="1"/>
  <rect x="550" y="200" width="120" height="120" rx="12" fill="#1a1a1a" stroke="#222" stroke-width="1"/>
  <rect x="130" y="340" width="540" height="1" fill="#222"/>
  <circle cx="160" cy="358" r="3" fill="#F6C35B" opacity="0.5"/>
  <rect x="175" y="355" width="100" height="6" rx="3" fill="#333"/>
  <circle cx="340" cy="358" r="3" fill="#8F1820" opacity="0.5"/>
  <rect x="355" y="355" width="100" height="6" rx="3" fill="#333"/>
  <circle cx="520" cy="358" r="3" fill="#F6C35B" opacity="0.5"/>
  <rect x="535" y="355" width="100" height="6" rx="3" fill="#333"/>
  <text x="400" y="420" text-anchor="middle" font-family="system-ui,-apple-system,sans-serif" font-size="11" fill="#555" letter-spacing="3">PROJECT AETHER</text>
</svg>
